<svg width="30" height="30" viewBox="0 0 30 30" fill="none" xmlns="http://www.w3.org/2000/svg">
    <path fill-rule="evenodd" clip-rule="evenodd"
        d="M17.25 5.5C17.25 5.36193 17.1381 5.25 17 5.25H10C8.48122 5.25 7.25 6.48122 7.25 8V22C7.25 23.5188 8.48122 24.75 10 24.75H20C21.5188 24.75 22.75 23.5188 22.75 22V12.1471C22.75 12.009 22.6381 11.8971 22.5 11.8971H18C17.5858 11.8971 17.25 11.5613 17.25 11.1471V5.5ZM18 15.25C18.4142 15.25 18.75 15.5858 18.75 16C18.75 16.4142 18.4142 16.75 18 16.75H12C11.5858 16.75 11.25 16.4142 11.25 16C11.25 15.5858 11.5858 15.25 12 15.25H18ZM18 19.25C18.4142 19.25 18.75 19.5858 18.75 20C18.75 20.4142 18.4142 20.75 18 20.75H12C11.5858 20.75 11.25 20.4142 11.25 20C11.25 19.5858 11.5858 19.25 12 19.25H18Z"
        fill="black" />
    <path
        d="M18.75 5.82414C18.75 5.63964 18.9426 5.5225 19.0862 5.63839C19.2071 5.736 19.3158 5.85036 19.4085 5.97955L22.4217 10.1775C22.4903 10.273 22.416 10.3971 22.2983 10.3971H19C18.8619 10.3971 18.75 10.2851 18.75 10.1471V5.82414Z"
        fill="black" />
</svg>